<svg id="visual" viewBox="0 0 1200 1000" width="1200" height="1000" xmlns="http://www.w3.org/2000/svg" xmlns:xlink="http://www.w3.org/1999/xlink" version="1.1"><rect x="0" y="0" width="1200" height="1000" fill="#71BAE5"></rect><path d="M0 229L171 426L343 323L514 305L686 423L857 397L1029 310L1200 396L1200 1001L1029 1001L857 1001L686 1001L514 1001L343 1001L171 1001L0 1001Z" fill="#71bae5"></path><path d="M0 441L171 266L343 411L514 363L686 474L857 332L1029 431L1200 493L1200 1001L1029 1001L857 1001L686 1001L514 1001L343 1001L171 1001L0 1001Z" fill="#86c2e8"></path><path d="M0 532L171 329L343 549L514 395L686 469L857 446L1029 350L1200 342L1200 1001L1029 1001L857 1001L686 1001L514 1001L343 1001L171 1001L0 1001Z" fill="#99cbec"></path><path d="M0 468L171 566L343 481L514 594L686 413L857 555L1029 611L1200 475L1200 1001L1029 1001L857 1001L686 1001L514 1001L343 1001L171 1001L0 1001Z" fill="#abd3ef"></path><path d="M0 648L171 583L343 501L514 691L686 589L857 639L1029 651L1200 643L1200 1001L1029 1001L857 1001L686 1001L514 1001L343 1001L171 1001L0 1001Z" fill="#bddcf2"></path><path d="M0 744L171 610L343 740L514 721L686 611L857 697L1029 656L1200 681L1200 1001L1029 1001L857 1001L686 1001L514 1001L343 1001L171 1001L0 1001Z" fill="#cee5f5"></path><path d="M0 800L171 763L343 757L514 810L686 782L857 699L1029 738L1200 726L1200 1001L1029 1001L857 1001L686 1001L514 1001L343 1001L171 1001L0 1001Z" fill="#dfedf9"></path><path d="M0 880L171 795L343 880L514 859L686 767L857 774L1029 858L1200 822L1200 1001L1029 1001L857 1001L686 1001L514 1001L343 1001L171 1001L0 1001Z" fill="#eff6fc"></path><path d="M0 866L171 906L343 891L514 940L686 889L857 933L1029 921L1200 906L1200 1001L1029 1001L857 1001L686 1001L514 1001L343 1001L171 1001L0 1001Z" fill="#ffffff"></path></svg>