<svg id="visual" viewBox="0 0 1200 1000" width="1200" height="1000" xmlns="http://www.w3.org/2000/svg" xmlns:xlink="http://www.w3.org/1999/xlink" version="1.1"><path d="M0 111L150 221L300 171L450 251L600 151L750 271L900 201L1050 221L1200 191L1200 0L1050 0L900 0L750 0L600 0L450 0L300 0L150 0L0 0Z" fill="#71bae5"></path><path d="M0 151L150 311L300 261L450 311L600 271L750 311L900 301L1050 341L1200 311L1200 189L1050 219L900 199L750 269L600 149L450 249L300 169L150 219L0 109Z" fill="#83c0e7"></path><path d="M0 191L150 411L300 311L450 341L600 321L750 371L900 351L1050 401L1200 371L1200 309L1050 339L900 299L750 309L600 269L450 309L300 259L150 309L0 149Z" fill="#93c6e9"></path><path d="M0 281L150 531L300 471L450 531L600 461L750 521L900 441L1050 511L1200 471L1200 369L1050 399L900 349L750 369L600 319L450 339L300 309L150 409L0 189Z" fill="#a2cdea"></path><path d="M0 641L150 631L300 641L450 711L600 761L750 681L900 691L1050 701L1200 701L1200 469L1050 509L900 439L750 519L600 459L450 529L300 469L150 529L0 279Z" fill="#b1d3ec"></path><path d="M0 691L150 721L300 691L450 781L600 791L750 731L900 741L1050 731L1200 801L1200 699L1050 699L900 689L750 679L600 759L450 709L300 639L150 629L0 639Z" fill="#bfd9ee"></path><path d="M0 761L150 741L300 721L450 841L600 821L750 771L900 801L1050 751L1200 831L1200 799L1050 729L900 739L750 729L600 789L450 779L300 689L150 719L0 689Z" fill="#ccdff0"></path><path d="M0 801L150 791L300 801L450 911L600 871L750 841L900 871L1050 791L1200 861L1200 829L1050 749L900 799L750 769L600 819L450 839L300 719L150 739L0 759Z" fill="#d9e6f1"></path><path d="M0 851L150 871L300 881L450 941L600 911L750 921L900 941L1050 861L1200 911L1200 859L1050 789L900 869L750 839L600 869L450 909L300 799L150 789L0 799Z" fill="#e6ecf3"></path><path d="M0 1001L150 1001L300 1001L450 1001L600 1001L750 1001L900 1001L1050 1001L1200 1001L1200 909L1050 859L900 939L750 919L600 909L450 939L300 879L150 869L0 849Z" fill="#f2f3f4"></path></svg>