<svg id="visual" viewBox="0 0 1200 1000" width="1200" height="1000" xmlns="http://www.w3.org/2000/svg" xmlns:xlink="http://www.w3.org/1999/xlink" version="1.1"><path d="M0 111L150 71L300 41L450 111L600 81L750 101L900 121L1050 121L1200 51L1200 0L1050 0L900 0L750 0L600 0L450 0L300 0L150 0L0 0Z" fill="#71bae5"></path><path d="M0 331L150 251L300 221L450 271L600 201L750 371L900 371L1050 411L1200 301L1200 49L1050 119L900 119L750 99L600 79L450 109L300 39L150 69L0 109Z" fill="#9bc9ea"></path><path d="M0 481L150 471L300 381L450 531L600 481L750 591L900 521L1050 561L1200 411L1200 299L1050 409L900 369L750 369L600 199L450 269L300 219L150 249L0 329Z" fill="#bfd9ee"></path><path d="M0 541L150 521L300 441L450 591L600 521L750 631L900 551L1050 611L1200 471L1200 409L1050 559L900 519L750 589L600 479L450 529L300 379L150 469L0 479Z" fill="#e0e9f2"></path><path d="M0 671L150 661L300 621L450 701L600 701L750 691L900 681L1050 691L1200 611L1200 469L1050 609L900 549L750 629L600 519L450 589L300 439L150 519L0 539Z" fill="#f2f3f4"></path><path d="M0 721L150 751L300 711L450 741L600 791L750 751L900 731L1050 751L1200 701L1200 609L1050 689L900 679L750 689L600 699L450 699L300 619L150 659L0 669Z" fill="#f2f3f4"></path><path d="M0 851L150 871L300 821L450 811L600 871L750 801L900 781L1050 841L1200 851L1200 699L1050 749L900 729L750 749L600 789L450 739L300 709L150 749L0 719Z" fill="#e0e9f2"></path><path d="M0 871L150 891L300 861L450 861L600 911L750 871L900 851L1050 891L1200 891L1200 849L1050 839L900 779L750 799L600 869L450 809L300 819L150 869L0 849Z" fill="#bfd9ee"></path><path d="M0 951L150 941L300 921L450 931L600 961L750 891L900 921L1050 941L1200 931L1200 889L1050 889L900 849L750 869L600 909L450 859L300 859L150 889L0 869Z" fill="#9bc9ea"></path><path d="M0 1001L150 1001L300 1001L450 1001L600 1001L750 1001L900 1001L1050 1001L1200 1001L1200 929L1050 939L900 919L750 889L600 959L450 929L300 919L150 939L0 949Z" fill="#71bae5"></path></svg>