<svg id="visual" viewBox="0 0 1200 2000" width="1200" height="2000" xmlns="http://www.w3.org/2000/svg" xmlns:xlink="http://www.w3.org/1999/xlink" version="1.1"><path d="M0 101L28.5 101C57 101 114 101 171.2 107.7C228.3 114.3 285.7 127.7 342.8 134.3C400 141 457 141 514.2 134.3C571.3 127.7 628.7 114.3 685.8 104.3C743 94.3 800 87.7 857.2 94.3C914.3 101 971.7 121 1028.8 127.7C1086 134.3 1143 127.7 1171.5 124.3L1200 121L1200 0L1171.5 0C1143 0 1086 0 1028.8 0C971.7 0 914.3 0 857.2 0C800 0 743 0 685.8 0C628.7 0 571.3 0 514.2 0C457 0 400 0 342.8 0C285.7 0 228.3 0 171.2 0C114 0 57 0 28.5 0L0 0Z" fill="#4f89ae"></path><path d="M0 221L28.5 224.3C57 227.7 114 234.3 171.2 237.7C228.3 241 285.7 241 342.8 251C400 261 457 281 514.2 277.7C571.3 274.3 628.7 247.7 685.8 234.3C743 221 800 221 857.2 237.7C914.3 254.3 971.7 287.7 1028.8 301C1086 314.3 1143 307.7 1171.5 304.3L1200 301L1200 119L1171.5 122.3C1143 125.7 1086 132.3 1028.8 125.7C971.7 119 914.3 99 857.2 92.3C800 85.7 743 92.3 685.8 102.3C628.7 112.3 571.3 125.7 514.2 132.3C457 139 400 139 342.8 132.3C285.7 125.7 228.3 112.3 171.2 105.7C114 99 57 99 28.5 99L0 99Z" fill="#64a7d0"></path><path d="M0 321L28.5 334.3C57 347.7 114 374.3 171.2 387.7C228.3 401 285.7 401 342.8 404.3C400 407.7 457 414.3 514.2 401C571.3 387.7 628.7 354.3 685.8 341C743 327.7 800 334.3 857.2 361C914.3 387.7 971.7 434.3 1028.8 454.3C1086 474.3 1143 467.7 1171.5 464.3L1200 461L1200 299L1171.5 302.3C1143 305.7 1086 312.3 1028.8 299C971.7 285.7 914.3 252.3 857.2 235.7C800 219 743 219 685.8 232.3C628.7 245.7 571.3 272.3 514.2 275.7C457 279 400 259 342.8 249C285.7 239 228.3 239 171.2 235.7C114 232.3 57 225.7 28.5 222.3L0 219Z" fill="#7ebfe7"></path><path d="M0 821L28.5 827.7C57 834.3 114 847.7 171.2 844.3C228.3 841 285.7 821 342.8 817.7C400 814.3 457 827.7 514.2 827.7C571.3 827.7 628.7 814.3 685.8 784.3C743 754.3 800 707.7 857.2 714.3C914.3 721 971.7 781 1028.8 827.7C1086 874.3 1143 907.7 1171.5 924.3L1200 941L1200 459L1171.5 462.3C1143 465.7 1086 472.3 1028.8 452.3C971.7 432.3 914.3 385.7 857.2 359C800 332.3 743 325.7 685.8 339C628.7 352.3 571.3 385.7 514.2 399C457 412.3 400 405.7 342.8 402.3C285.7 399 228.3 399 171.2 385.7C114 372.3 57 345.7 28.5 332.3L0 319Z" fill="#9accec"></path><path d="M0 1081L28.5 1077.7C57 1074.3 114 1067.7 171.2 1067.7C228.3 1067.7 285.7 1074.3 342.8 1084.3C400 1094.3 457 1107.7 514.2 1111C571.3 1114.3 628.7 1107.7 685.8 1084.3C743 1061 800 1021 857.2 1011C914.3 1001 971.7 1021 1028.8 1061C1086 1101 1143 1161 1171.5 1191L1200 1221L1200 939L1171.5 922.3C1143 905.7 1086 872.3 1028.8 825.7C971.7 779 914.3 719 857.2 712.3C800 705.7 743 752.3 685.8 782.3C628.7 812.3 571.3 825.7 514.2 825.7C457 825.7 400 812.3 342.8 815.7C285.7 819 228.3 839 171.2 842.3C114 845.7 57 832.3 28.5 825.7L0 819Z" fill="#a0cfed"></path><path d="M0 1321L28.5 1311C57 1301 114 1281 171.2 1277.7C228.3 1274.3 285.7 1287.7 342.8 1291C400 1294.3 457 1287.7 514.2 1294.3C571.3 1301 628.7 1321 685.8 1311C743 1301 800 1261 857.2 1254.3C914.3 1247.7 971.7 1274.3 1028.8 1304.3C1086 1334.3 1143 1367.7 1171.5 1384.3L1200 1401L1200 1219L1171.5 1189C1143 1159 1086 1099 1028.8 1059C971.7 1019 914.3 999 857.2 1009C800 1019 743 1059 685.8 1082.3C628.7 1105.7 571.3 1112.3 514.2 1109C457 1105.7 400 1092.3 342.8 1082.3C285.7 1072.3 228.3 1065.7 171.2 1065.7C114 1065.7 57 1072.3 28.5 1075.7L0 1079Z" fill="#9accec"></path><path d="M0 1401L28.5 1397.7C57 1394.3 114 1387.7 171.2 1387.7C228.3 1387.7 285.7 1394.3 342.8 1394.3C400 1394.3 457 1387.7 514.2 1397.7C571.3 1407.7 628.7 1434.3 685.8 1431C743 1427.7 800 1394.3 857.2 1381C914.3 1367.7 971.7 1374.3 1028.8 1394.3C1086 1414.3 1143 1447.7 1171.5 1464.3L1200 1481L1200 1399L1171.5 1382.3C1143 1365.7 1086 1332.3 1028.8 1302.3C971.7 1272.3 914.3 1245.7 857.2 1252.3C800 1259 743 1299 685.8 1309C628.7 1319 571.3 1299 514.2 1292.3C457 1285.7 400 1292.3 342.8 1289C285.7 1285.7 228.3 1272.3 171.2 1275.7C114 1279 57 1299 28.5 1309L0 1319Z" fill="#7ebfe7"></path><path d="M0 1761L28.5 1771C57 1781 114 1801 171.2 1811C228.3 1821 285.7 1821 342.8 1827.7C400 1834.3 457 1847.7 514.2 1857.7C571.3 1867.7 628.7 1874.3 685.8 1874.3C743 1874.3 800 1867.7 857.2 1864.3C914.3 1861 971.7 1861 1028.8 1854.3C1086 1847.7 1143 1834.3 1171.5 1827.7L1200 1821L1200 1479L1171.5 1462.3C1143 1445.7 1086 1412.3 1028.8 1392.3C971.7 1372.3 914.3 1365.7 857.2 1379C800 1392.3 743 1425.7 685.8 1429C628.7 1432.3 571.3 1405.7 514.2 1395.7C457 1385.7 400 1392.3 342.8 1392.3C285.7 1392.3 228.3 1385.7 171.2 1385.7C114 1385.7 57 1392.3 28.5 1395.7L0 1399Z" fill="#64a7d0"></path><path d="M0 2001L28.5 2001C57 2001 114 2001 171.2 2001C228.3 2001 285.7 2001 342.8 2001C400 2001 457 2001 514.2 2001C571.3 2001 628.7 2001 685.8 2001C743 2001 800 2001 857.2 2001C914.3 2001 971.7 2001 1028.8 2001C1086 2001 1143 2001 1171.5 2001L1200 2001L1200 1819L1171.5 1825.7C1143 1832.3 1086 1845.7 1028.8 1852.3C971.7 1859 914.3 1859 857.2 1862.3C800 1865.7 743 1872.3 685.8 1872.3C628.7 1872.3 571.3 1865.7 514.2 1855.7C457 1845.7 400 1832.3 342.8 1825.7C285.7 1819 228.3 1819 171.2 1809C114 1799 57 1779 28.5 1769L0 1759Z" fill="#4f89ae"></path></svg>