<svg id="visual" viewBox="0 0 1200 2000" width="1200" height="2000" xmlns="http://www.w3.org/2000/svg" xmlns:xlink="http://www.w3.org/1999/xlink" version="1.1"><path d="M0 281L100 281L100 281L200 281L200 321L300 321L300 301L400 301L400 301L500 301L500 221L600 221L600 321L700 321L700 401L800 401L800 341L900 341L900 341L1000 341L1000 301L1100 301L1100 201L1200 201L1200 301L1200 0L1200 0L1100 0L1100 0L1000 0L1000 0L900 0L900 0L800 0L800 0L700 0L700 0L600 0L600 0L500 0L500 0L400 0L400 0L300 0L300 0L200 0L200 0L100 0L100 0L0 0Z" fill="#71bae5"></path><path d="M0 501L100 501L100 501L200 501L200 541L300 541L300 561L400 561L400 581L500 581L500 541L600 541L600 541L700 541L700 581L800 581L800 561L900 561L900 541L1000 541L1000 601L1100 601L1100 501L1200 501L1200 601L1200 299L1200 199L1100 199L1100 299L1000 299L1000 339L900 339L900 339L800 339L800 399L700 399L700 319L600 319L600 219L500 219L500 299L400 299L400 299L300 299L300 319L200 319L200 279L100 279L100 279L0 279Z" fill="#8bc3e8"></path><path d="M0 881L100 881L100 1161L200 1161L200 1041L300 1041L300 1021L400 1021L400 941L500 941L500 1021L600 1021L600 1061L700 1061L700 981L800 981L800 1081L900 1081L900 961L1000 961L1000 1181L1100 1181L1100 981L1200 981L1200 1161L1200 599L1200 499L1100 499L1100 599L1000 599L1000 539L900 539L900 559L800 559L800 579L700 579L700 539L600 539L600 539L500 539L500 579L400 579L400 559L300 559L300 539L200 539L200 499L100 499L100 499L0 499Z" fill="#a2cdea"></path><path d="M0 1461L100 1461L100 1521L200 1521L200 1501L300 1501L300 1541L400 1541L400 1501L500 1501L500 1601L600 1601L600 1481L700 1481L700 1541L800 1541L800 1601L900 1601L900 1501L1000 1501L1000 1581L1100 1581L1100 1541L1200 1541L1200 1541L1200 1159L1200 979L1100 979L1100 1179L1000 1179L1000 959L900 959L900 1079L800 1079L800 979L700 979L700 1059L600 1059L600 1019L500 1019L500 939L400 939L400 1019L300 1019L300 1039L200 1039L200 1159L100 1159L100 879L0 879Z" fill="#b8d6ed"></path><path d="M0 1641L100 1641L100 1681L200 1681L200 1641L300 1641L300 1681L400 1681L400 1681L500 1681L500 1701L600 1701L600 1621L700 1621L700 1641L800 1641L800 1701L900 1701L900 1661L1000 1661L1000 1701L1100 1701L1100 1681L1200 1681L1200 1681L1200 1539L1200 1539L1100 1539L1100 1579L1000 1579L1000 1499L900 1499L900 1599L800 1599L800 1539L700 1539L700 1479L600 1479L600 1599L500 1599L500 1499L400 1499L400 1539L300 1539L300 1499L200 1499L200 1519L100 1519L100 1459L0 1459Z" fill="#ccdff0"></path><path d="M0 1821L100 1821L100 1841L200 1841L200 1861L300 1861L300 1821L400 1821L400 1841L500 1841L500 1881L600 1881L600 1841L700 1841L700 1861L800 1861L800 1881L900 1881L900 1881L1000 1881L1000 1881L1100 1881L1100 1881L1200 1881L1200 1821L1200 1679L1200 1679L1100 1679L1100 1699L1000 1699L1000 1659L900 1659L900 1699L800 1699L800 1639L700 1639L700 1619L600 1619L600 1699L500 1699L500 1679L400 1679L400 1679L300 1679L300 1639L200 1639L200 1679L100 1679L100 1639L0 1639Z" fill="#e0e9f2"></path><path d="M0 2001L100 2001L100 2001L200 2001L200 2001L300 2001L300 2001L400 2001L400 2001L500 2001L500 2001L600 2001L600 2001L700 2001L700 2001L800 2001L800 2001L900 2001L900 2001L1000 2001L1000 2001L1100 2001L1100 2001L1200 2001L1200 2001L1200 1819L1200 1879L1100 1879L1100 1879L1000 1879L1000 1879L900 1879L900 1879L800 1879L800 1859L700 1859L700 1839L600 1839L600 1879L500 1879L500 1839L400 1839L400 1819L300 1819L300 1859L200 1859L200 1839L100 1839L100 1819L0 1819Z" fill="#f2f3f4"></path></svg>