<svg width="304" height="116" viewBox="0 0 304 116" fill="none" xmlns="http://www.w3.org/2000/svg">
<path fill-rule="evenodd" clip-rule="evenodd" d="M226 0.000183105H80V116H226V84.6867C229.696 84.5357 232.882 83.8749 235.558 82.7042C238.63 81.3602 240.91 79.5602 242.398 77.3042C243.934 75.0482 244.702 72.5282 244.702 69.7442C244.702 66.4802 243.838 63.8882 242.11 61.9682C240.43 60.0482 238.39 58.6322 235.99 57.7202C233.59 56.7602 230.518 55.8482 226.774 54.9842C226.51 54.9195 226.253 54.8556 226 54.7923V40.6574C228.183 40.6798 230.433 41.0154 232.75 41.6642C235.15 42.3362 237.454 43.3202 239.662 44.6162L242.614 37.3442C240.454 35.9042 237.886 34.8002 234.91 34.0322C231.986 33.2777 229.016 32.8938 226 32.8805V0.000183105ZM226 63.4596V54.7923C223.627 54.1974 221.725 53.6614 220.294 53.1842C218.71 52.6562 217.39 51.9362 216.334 51.0242C215.326 50.1122 214.822 48.9362 214.822 47.4962C214.822 45.4322 215.71 43.7762 217.486 42.5282C219.31 41.2802 222.07 40.6562 225.766 40.6562C225.844 40.6562 225.922 40.6566 226 40.6574V32.8805C225.946 32.8803 225.892 32.8802 225.838 32.8802C221.422 32.8802 217.678 33.5522 214.606 34.8962C211.582 36.2402 209.302 38.0642 207.766 40.3682C206.278 42.6242 205.534 45.1442 205.534 47.9282C205.534 51.2402 206.374 53.8802 208.054 55.8482C209.782 57.7682 211.822 59.1842 214.174 60.0962C216.574 61.0082 219.694 61.9202 223.534 62.8322C224.416 63.0488 225.238 63.258 226 63.4596ZM226 63.4596V76.9008C225.465 76.9297 224.907 76.9442 224.326 76.9442C221.302 76.9442 218.278 76.4402 215.254 75.4322C212.278 74.3762 209.758 73.0322 207.694 71.4002L204.454 78.6722C206.566 80.4962 209.422 81.9602 213.022 83.0642C216.67 84.1682 220.438 84.7202 224.326 84.7202C224.895 84.7202 225.453 84.709 226 84.6867V76.9008C228.911 76.7434 231.137 76.1579 232.678 75.1442C234.55 73.9442 235.486 72.3602 235.486 70.3922C235.486 68.9522 234.958 67.7762 233.902 66.8642C232.894 65.9042 231.598 65.1602 230.014 64.6322C228.94 64.2744 227.602 63.8835 226 63.4596ZM73.6447 63.6242V33.6002H64.3567V63.3362C64.3567 72.1202 60.6367 76.5122 53.1967 76.5122C45.6127 76.5122 41.8207 72.1202 41.8207 63.3362V33.6002H32.4607V63.3362C32.4607 72.1202 28.6927 76.5122 21.1567 76.5122C17.5087 76.5122 14.7247 75.4562 12.8047 73.3442C10.9327 71.2322 9.99672 67.8962 9.99672 63.3362V33.6002H0.636719V63.6242C0.636719 70.4882 2.41272 75.7202 5.96472 79.3202C9.51672 82.9202 14.5807 84.7202 21.1567 84.7202C24.7087 84.7202 27.8287 84.1682 30.5167 83.0642C33.2527 81.9122 35.4607 80.3522 37.1407 78.3842C38.7727 80.3522 40.9567 81.9122 43.6927 83.0642C46.4767 84.1682 49.6447 84.7202 53.1967 84.7202C59.7727 84.7202 64.8127 82.9442 68.3167 79.3922C71.8687 75.7922 73.6447 70.5362 73.6447 63.6242ZM117.45 83.2802C121.002 82.3202 123.906 80.9522 126.162 79.1762L123.138 71.9762C121.122 73.5122 118.602 74.7122 115.578 75.5762C112.602 76.4402 109.53 76.8722 106.362 76.8722C101.802 76.8722 98.394 76.2002 96.138 74.8562C93.882 73.5122 92.754 71.6882 92.754 69.3842C92.754 67.0802 93.69 65.3522 95.562 64.2002C97.434 63.0002 100.074 62.4002 103.482 62.4002H117.306V54.6242H103.986C101.01 54.6242 98.754 54.0722 97.218 52.9682C95.682 51.8162 94.914 50.1602 94.914 48.0002C94.914 45.7922 95.946 44.0402 98.01 42.7442C100.122 41.4002 103.242 40.7282 107.37 40.7282C112.602 40.7282 117.33 41.8322 121.554 44.0402L124.218 36.6242C121.962 35.4722 119.322 34.5602 116.298 33.8882C113.274 33.2162 110.178 32.8802 107.01 32.8802C102.306 32.8802 98.346 33.5522 95.13 34.8962C91.914 36.1922 89.49 37.9442 87.858 40.1522C86.274 42.3122 85.482 44.7362 85.482 47.4242C85.482 49.7762 86.034 51.9122 87.138 53.8322C88.29 55.7042 89.85 57.1682 91.818 58.2242C89.226 59.1842 87.162 60.6962 85.626 62.7602C84.09 64.8242 83.322 67.2482 83.322 70.0322C83.322 72.9122 84.186 75.4562 85.914 77.6642C87.642 79.8722 90.186 81.6002 93.546 82.8482C96.954 84.0962 101.082 84.7202 105.93 84.7202C110.058 84.7202 113.898 84.2402 117.45 83.2802ZM176.366 62.4002C174.734 60.2402 172.526 58.7042 169.742 57.7922C171.758 56.7362 173.342 55.2482 174.494 53.3282C175.646 51.4082 176.222 49.2002 176.222 46.7042C176.222 42.6242 174.614 39.4322 171.398 37.1282C168.182 34.7762 163.598 33.6002 157.646 33.6002H134.03V84.0002H159.086C165.518 84.0002 170.414 82.8242 173.774 80.4722C177.134 78.0722 178.814 74.6882 178.814 70.3202C178.814 67.1522 177.998 64.5122 176.366 62.4002ZM143.39 54.8402V40.9442H156.638C159.902 40.9442 162.398 41.5442 164.126 42.7442C165.902 43.8962 166.79 45.6242 166.79 47.9282C166.79 50.1842 165.902 51.9122 164.126 53.1122C162.398 54.2642 159.902 54.8402 156.638 54.8402H143.39ZM169.382 69.3842C169.382 74.2322 165.758 76.6562 158.51 76.6562H143.39V62.1122H158.51C165.758 62.1122 169.382 64.5362 169.382 69.3842ZM276.015 33.6002H253.983V84.0002H276.015C281.391 84.0002 286.167 82.9682 290.343 80.9042C294.519 78.7922 297.759 75.8402 300.063 72.0482C302.367 68.2082 303.519 63.7922 303.519 58.8002C303.519 53.8082 302.367 49.4162 300.063 45.6242C297.759 41.7842 294.519 38.8322 290.343 36.7682C286.167 34.6562 281.391 33.6002 276.015 33.6002ZM285.303 73.9922C282.519 75.3842 279.279 76.0802 275.583 76.0802H263.343V41.5202H275.583C279.279 41.5202 282.519 42.2402 285.303 43.6802C288.135 45.0722 290.295 47.0882 291.783 49.7282C293.319 52.3202 294.087 55.3442 294.087 58.8002C294.087 62.2562 293.319 65.3042 291.783 67.9442C290.295 70.5362 288.135 72.5522 285.303 73.9922Z" fill="#71BAE5"/>
</svg>
