<?xml version="1.0" encoding="UTF-8"?>
<svg id="_Слой_2" data-name="Слой 2" xmlns="http://www.w3.org/2000/svg" viewBox="0 0 283.91 178.67">
  <defs>
    <style>
      .cls-1 {
        fill: #ddd;
      }

      .cls-2 {
        fill: #e6bc50;
      }

      .cls-3 {
        fill: #71bae5;
      }
    </style>
  </defs>
  <g id="_Слой_1-2" data-name="Слой 1">
    <g>
      <polygon class="cls-2" points="96.19 27.86 40.85 178.67 151.53 178.67 96.19 27.86"/>
      <polygon points="99.32 40.59 97.21 85.29 96.12 85.29 94.01 40.59 99.32 40.59 99.32 40.59"/>
      <rect x="84.3" width="24.73" height="42.99"/>
      <g>
        <path d="m15.72,161.9L.08,105.27l-.08-.25c0-.44.28-.67.83-.67h6.74c.5,0,.8.25.91.75l10.89,41.42c.05.11.12.17.21.17s.15-.06.21-.17l10.31-41.42c.11-.5.42-.75.91-.75h6.57c.5,0,.8.25.91.75l10.89,41.5c.05.11.11.17.17.17s.11-.05.17-.17l10.98-41.5c.11-.5.42-.75.91-.75h6.32c.28,0,.48.08.62.25.14.17.18.39.12.67l-15.05,56.55c-.11.5-.42.75-.91.75h-6.4c-.5,0-.8-.25-.91-.75l-10.89-42.91c-.06-.17-.11-.25-.17-.25s-.11.08-.17.25l-10.56,42.91c-.06.5-.36.75-.91.75h-6.07c-.5,0-.8-.22-.92-.67Z"/>
        <path class="cls-3" d="m114.69,89.05h-29.52c-.22,0-.33.11-.33.33v17.88c0,.22.11.33.33.33h20.29c.55,0,.83.28.83.83v5.24c0,.55-.28.83-.83.83h-20.29c-.22,0-.33.11-.33.33v18.3c0,.22.11.33.33.33h29.52c.55,0,.83.28.83.83v5.24c0,.55-.28.83-.83.83h-37.01c-.55,0-.83-.28-.83-.83v-56.55c0-.55.28-.83.83-.83h37.01c.55,0,.83.28.83.83v5.24c0,.55-.28.83-.83.83Z"/>
        <path d="m157.59,132.71c5.88,2.5,8.82,7.13,8.82,13.89,0,5.1-1.69,9.04-5.07,11.81-3.38,2.77-7.79,4.16-13.22,4.16h-20.71c-.55,0-.83-.28-.83-.83v-56.55c0-.55.28-.83.83-.83h20.04c5.77,0,10.24,1.32,13.43,3.95,3.19,2.63,4.78,6.47,4.78,11.52,0,5.99-2.69,10.12-8.07,12.39-.28.17-.28.33,0,.5Zm-23.04-21.12v17.55c0,.22.11.33.33.33h12.56c3.21,0,5.75-.8,7.61-2.41,1.86-1.61,2.79-3.8,2.79-6.57s-.93-5.07-2.79-6.74c-1.86-1.66-4.39-2.49-7.61-2.49h-12.56c-.22,0-.33.11-.33.33Zm21.08,41.37c1.86-1.75,2.79-4.12,2.79-7.11s-.94-5.36-2.83-7.11c-1.89-1.75-4.46-2.62-7.73-2.62h-12.97c-.22,0-.33.11-.33.33v18.79c0,.22.11.33.33.33h13.22c3.16,0,5.67-.87,7.53-2.62Z"/>
        <path d="m201.95,161.24c-3.13-1.33-5.54-3.21-7.23-5.66-1.69-2.44-2.54-5.29-2.54-8.56v-2.41c0-.55.28-.83.83-.83h6.07c.55,0,.83.28.83.83v2c0,2.83,1.22,5.16,3.66,6.99,2.44,1.83,5.79,2.74,10.06,2.74,3.83,0,6.71-.8,8.65-2.41,1.94-1.61,2.91-3.71,2.91-6.32,0-1.72-.5-3.19-1.5-4.41-1-1.22-2.45-2.34-4.37-3.37-1.91-1.02-4.7-2.26-8.36-3.7-4.05-1.55-7.25-2.96-9.61-4.24-2.36-1.27-4.31-2.95-5.86-5.03-1.55-2.08-2.33-4.7-2.33-7.86,0-4.77,1.7-8.51,5.11-11.23,3.41-2.72,8.02-4.08,13.85-4.08,4.1,0,7.71.69,10.81,2.08,3.1,1.39,5.5,3.33,7.19,5.82,1.69,2.5,2.54,5.38,2.54,8.65v1.66c0,.55-.28.83-.83.83h-6.24c-.56,0-.83-.28-.83-.83v-1.25c0-2.88-1.15-5.28-3.45-7.19-2.3-1.91-5.48-2.87-9.52-2.87-3.44,0-6.1.71-7.98,2.12-1.89,1.41-2.83,3.45-2.83,6.11,0,1.83.47,3.33,1.41,4.49.94,1.16,2.34,2.2,4.2,3.12,1.86.91,4.7,2.09,8.52,3.53,3.94,1.55,7.12,2.98,9.56,4.28,2.44,1.3,4.46,3.02,6.07,5.16,1.61,2.14,2.41,4.78,2.41,7.94,0,4.88-1.79,8.75-5.36,11.6-3.58,2.86-8.5,4.28-14.76,4.28-4.27,0-7.97-.67-11.1-2Z"/>
        <path d="m243.99,161.74v-56.55c0-.55.28-.83.83-.83h20.12c5.77,0,10.37,1.51,13.81,4.53,3.44,3.02,5.15,7.05,5.15,12.1v24.95c0,5.05-1.72,9.08-5.15,12.1-3.44,3.02-8.04,4.53-13.81,4.53h-20.12c-.55,0-.83-.28-.83-.83Zm8.32-6.07h12.97c3.21,0,5.78-.98,7.69-2.95,1.91-1.97,2.9-4.62,2.95-7.94v-22.62c0-3.33-.96-5.97-2.87-7.94-1.91-1.97-4.51-2.95-7.78-2.95h-12.97c-.22,0-.33.11-.33.33v43.74c0,.22.11.33.33.33Z"/>
      </g>
      <polygon points="94.14 32.91 61.88 51.62 62.91 48.11 81.14 88.04 79.93 88.66 58.18 50.53 56.93 48.34 59.21 47.02 91.47 28.31 94.14 32.91 94.14 32.91"/>
      <polygon points="100.9 28.31 133.16 47.02 135.44 48.34 134.19 50.53 112.45 88.66 111.23 88.04 129.47 48.11 130.5 51.62 98.23 32.91 100.9 28.31 100.9 28.31"/>
      <ellipse class="cls-1" cx="96.19" cy="161.04" rx="19.51" ry="3.33"/>
    </g>
  </g>
</svg>