<?xml version="1.0" encoding="UTF-8"?>
<svg id="_Слой_2" data-name="Слой 2" xmlns="http://www.w3.org/2000/svg" viewBox="0 0 53.16 57.08">
  <defs>
    <style>
      .cls-1 {
        fill: #ddd;
      }

      .cls-2 {
        fill: #e6bc50;
      }

      .cls-3 {
        fill: #71bae5;
      }
    </style>
  </defs>
  <g id="_Слой_1-2" data-name="Слой 1">
    <g>
      <polygon class="cls-2" points="30.73 8.9 13.05 57.08 48.41 57.08 30.73 8.9"/>
      <polygon points="31.73 12.97 31.06 27.25 30.71 27.25 30.03 12.97 31.73 12.97 31.73 12.97"/>
      <rect x="26.93" width="7.9" height="13.73"/>
      <g>
        <path d="m5.02,51.72L.03,33.63l-.03-.08c0-.14.09-.21.27-.21h2.15c.16,0,.26.08.29.24l3.48,13.23s.04.05.07.05.05-.02.07-.05l3.29-13.23c.04-.16.13-.24.29-.24h2.1c.16,0,.26.08.29.24l3.48,13.26s.04.05.05.05.04-.02.05-.05l3.51-13.26c.04-.16.13-.24.29-.24h2.02c.09,0,.15.03.2.08.04.05.06.12.04.21l-4.81,18.07c-.04.16-.13.24-.29.24h-2.05c-.16,0-.26-.08-.29-.24l-3.48-13.71c-.02-.05-.04-.08-.05-.08s-.04.03-.05.08l-3.37,13.71c-.02.16-.12.24-.29.24h-1.94c-.16,0-.26-.07-.29-.21Z"/>
        <path class="cls-3" d="m36.64,28.45h-9.43c-.07,0-.11.04-.11.11v5.71c0,.07.04.11.11.11h6.48c.18,0,.27.09.27.27v1.67c0,.18-.09.27-.27.27h-6.48c-.07,0-.11.04-.11.11v5.84c0,.07.04.11.11.11h9.43c.18,0,.27.09.27.27v1.67c0,.18-.09.27-.27.27h-11.82c-.18,0-.27-.09-.27-.27v-18.07c0-.18.09-.27.27-.27h11.82c.18,0,.27.09.27.27v1.67c0,.18-.09.27-.27.27Z"/>
        <path d="m50.35,42.4c1.88.8,2.82,2.28,2.82,4.44,0,1.63-.54,2.89-1.62,3.77-1.08.89-2.49,1.33-4.22,1.33h-6.62c-.18,0-.27-.09-.27-.27v-18.07c0-.18.09-.27.27-.27h6.4c1.84,0,3.27.42,4.29,1.26,1.02.84,1.53,2.07,1.53,3.68,0,1.91-.86,3.23-2.58,3.96-.09.05-.09.11,0,.16Zm-7.36-6.75v5.61c0,.07.04.11.11.11h4.01c1.03,0,1.84-.26,2.43-.77.59-.51.89-1.21.89-2.1s-.3-1.62-.89-2.15c-.59-.53-1.4-.8-2.43-.8h-4.01c-.07,0-.11.04-.11.11Zm6.74,13.22c.59-.56.89-1.32.89-2.27s-.3-1.71-.9-2.27c-.6-.56-1.43-.84-2.47-.84h-4.14c-.07,0-.11.04-.11.11v6c0,.07.04.11.11.11h4.22c1.01,0,1.81-.28,2.4-.84Z"/>
      </g>
      <polygon points="30.08 10.51 19.77 16.49 20.1 15.37 25.92 28.13 25.54 28.33 18.59 16.14 18.19 15.45 18.92 15.02 29.22 9.05 30.08 10.51 30.08 10.51"/>
      <polygon points="32.24 9.05 42.54 15.02 43.27 15.45 42.87 16.14 35.92 28.33 35.54 28.13 41.36 15.37 41.69 16.49 31.38 10.51 32.24 9.05 32.24 9.05"/>
      <ellipse class="cls-1" cx="30.73" cy="51.45" rx="6.23" ry="1.06"/>
    </g>
  </g>
</svg>